<?xml version="1.0" standalone="no"?>
<!DOCTYPE svg PUBLIC "-//W3C//DTD SVG 20010904//EN"
 "http://www.w3.org/TR/2001/REC-SVG-20010904/DTD/svg10.dtd">
<svg version="1.0" xmlns="http://www.w3.org/2000/svg"
 width="180.000000pt" height="180.000000pt" viewBox="0 0 180.000000 180.000000"
 preserveAspectRatio="xMidYMid meet">
<metadata>
Created by potrace 1.14, written by Peter Selinger 2001-2017
</metadata>
<g transform="translate(0.000000,180.000000) scale(0.100000,-0.100000)"
fill="#000000" stroke="none">
<path d="M1078 1770 c-26 -16 -73 -43 -105 -61 -32 -17 -62 -35 -68 -39 -5 -4
-32 -20 -60 -36 -27 -15 -62 -34 -77 -43 -115 -67 -359 -208 -386 -222 -18
-10 -39 -22 -46 -28 -10 -8 -13 -108 -13 -470 0 -253 3 -464 6 -469 9 -14 215
-132 220 -126 3 3 5 212 6 465 l0 460 50 28 c28 16 104 60 170 98 66 39 212
123 325 188 113 65 218 126 233 135 l28 17 -38 23 c-21 13 -63 36 -93 53 -30
17 -64 36 -75 44 -24 16 -21 17 -77 -17z"/>
<path d="M1320 1375 c-80 -47 -152 -88 -160 -92 -9 -5 -97 -55 -196 -112
l-180 -104 1 -133 0 -132 29 15 c29 15 168 95 196 113 8 5 44 26 80 46 36 21
137 79 226 130 l161 94 0 130 c0 71 -2 130 -6 130 -3 0 -71 -38 -151 -85z"/>
<path d="M1235 794 c-126 -74 -239 -139 -250 -144 -11 -5 -60 -33 -110 -63
l-90 -53 0 -190 c-1 -104 1 -196 3 -204 2 -9 15 -21 30 -28 15 -6 64 -34 109
-61 46 -27 84 -46 86 -43 2 4 3 93 3 199 l-1 191 50 30 c27 16 122 71 210 122
88 51 170 98 181 104 20 10 21 17 21 143 0 73 -3 133 -6 132 -3 0 -109 -61
-236 -135z"/>
<path d="M1460 393 c0 -4 -17 -16 -38 -26 -20 -10 -68 -37 -106 -60 l-70 -42
1 -115 c1 -63 1 -123 2 -132 1 -13 22 -5 102 42 55 33 105 60 110 60 5 0 11
10 13 23 8 41 4 247 -5 253 -5 3 -9 2 -9 -3z"/>
</g>
</svg>
