<?xml version="1.0" encoding="utf-8"?>
<!-- Generator: Adobe Illustrator 23.0.1, SVG Export Plug-In . SVG Version: 6.00 Build 0)  -->
<svg version="1.1"
	 id="Livello_1" image-rendering="optimizeQuality" shape-rendering="geometricPrecision" text-rendering="geometricPrecision"
	 xmlns="http://www.w3.org/2000/svg" xmlns:xlink="http://www.w3.org/1999/xlink" x="0px" y="0px" viewBox="0 0 200 200"
	 style="enable-background:new 0 0 200 200;" xml:space="preserve">
<style type="text/css">
	.st0{fill:#BED12E;}
	.st1{fill:#FFFFFF;}
</style>
<g>
	<path class="st0" d="M0,100c0,55.9,44.1,100,100,100c55.9,0,100-44.1,100-100S155.9,0,100,0C44.1,0,0,44.1,0,100"/>
	<path class="st1" d="M108.7,99.7c0,22.3,6.8,36.2,20.7,36.2c13.9,0,21-13.9,21-36.2c0-22.3-7.1-36.5-21-36.5
		C115.5,63.2,108.7,77.4,108.7,99.7 M89.8,99.7c0-32.8,14.7-53,39.6-53c25.2,0,39.9,20.2,39.9,53c0,32.8-14.7,53-39.9,53
		C104.5,152.8,89.8,132.6,89.8,99.7 M32,64.8l5.8-16.5H69v102.6H50.7V64.8H32z"/>
</g>
</svg>
