<?xml version="1.0" encoding="utf-8"?>
<!-- Generator: Adobe Illustrator 23.0.1, SVG Export Plug-In . SVG Version: 6.00 Build 0)  -->
<svg version="1.1" id="Слой_1" xmlns="http://www.w3.org/2000/svg" xmlns:xlink="http://www.w3.org/1999/xlink" x="0px" y="0px"
	 viewBox="0 0 299 150" style="enable-background:new 0 0 299 150;" xml:space="preserve">
<style type="text/css">
	.st0{fill:#E94282;}
	.st1{fill:#FFFFFF;}
</style>
<g>
	<path class="st0" d="M298.4,9.9l-42.3,129.8c-2.8,8-6.2,10.4-14.5,10.4H8.1c-7.1,0-9.4-3.2-7.4-10.1L42.8,10.1
		C45.3,2.3,48.6,0,57.1,0h233.7C298,0,300.3,3.2,298.4,9.9"/>
	<path class="st1" d="M169.1,41.9l10.4,10.6c5.8-5.5,13.8-9.4,21.4-9.4c8.5,0,15.2,4.8,15.2,12.9c0,7.1-3.7,12-20.5,28.7l-23,22.8
		v12.2h58.7l5.1-14.3h-41.4v-0.2l16.3-15.6c15.2-14.5,21.2-22.8,21.2-35c0-13.8-10.8-26.2-30.8-26.2C189.1,28.3,177,34.3,169.1,41.9
		 M154.6,74.8c0-26.7-18.2-45.1-46.5-45.1h-41l-4.8,15.2h15v74.8h30.8C136.5,119.6,154.6,101.2,154.6,74.8 M136.7,74.8
		c0,19.8-12.4,30.1-29,30.1H94.1V44.6h13.6C124.3,44.6,136.7,54.8,136.7,74.8"/>
</g>
</svg>
