<?xml version="1.0" encoding="utf-8"?>
<!-- Generator: Adobe Illustrator 23.0.1, SVG Export Plug-In . SVG Version: 6.00 Build 0)  -->
<svg version="1.1"
	 id="Livello_1" image-rendering="optimizeQuality" shape-rendering="geometricPrecision" text-rendering="geometricPrecision"
	 xmlns="http://www.w3.org/2000/svg" xmlns:xlink="http://www.w3.org/1999/xlink" x="0px" y="0px" viewBox="0 0 200 200"
	 style="enable-background:new 0 0 200 200;" xml:space="preserve">
<style type="text/css">
	.st0{fill:#1DBBEE;}
	.st1{fill:#FFFFFF;}
</style>
<g>
	<path class="st0" d="M0,100c0,55.9,44.1,100,100,100c55.9,0,100-44.1,100-100C200,44.1,155.9,0,100,0C44.1,0,0,44.1,0,100"/>
	<polygon class="st1" points="59.9,128.1 59.9,114.2 86.6,48.3 106.3,48.3 79.8,112.1 79.8,112.3 108.2,112.3 108.2,84.3 
		126.3,84.3 126.3,112.3 142.5,112.3 136.8,128.1 126.3,128.1 126.3,150.9 108.2,150.9 108.2,128.1 	"/>
</g>
</svg>
