<?xml version="1.0" encoding="utf-8"?>
<!-- Generator: Adobe Illustrator 22.0.1, SVG Export Plug-In . SVG Version: 6.00 Build 0)  -->
<svg version="1.1" id="Слой_1" xmlns="http://www.w3.org/2000/svg" xmlns:xlink="http://www.w3.org/1999/xlink" x="0px" y="0px"
	 viewBox="0 0 298 150" style="enable-background:new 0 0 298 150;" xml:space="preserve">
<style type="text/css">
	.st0{fill:#E95B0C;}
	.st1{fill:#FFFFFF;}
</style>
<path class="st0" d="M45.6,3.5C46.2,1.4,48.2,0,50.3,0h242.5c3.3,0,5.7,3.2,4.7,6.4l-45.1,140.1c-0.6,2.1-2.6,3.5-4.7,3.5H5.2
	c-3.3,0-5.7-3.2-4.7-6.4L45.6,3.5z"/>
<g>
	<path class="st1" d="M229.7,71.4L229.7,71.4L229.7,71.4L229.7,71.4L229.7,71.4c-4.6-4.7-10-7.7-16.5-9l22.9-22.9V25.7h-63.3v16.5
		h40.5L189.5,66v11.7l2.5-0.4c1.1-0.1,2.2-0.2,3.5-0.4s2.4-0.1,3.6-0.1c6.1,0,11,1.4,15.1,4.2c3.8,2.6,5.8,6.3,5.8,11.4
		c0,4.8-1.7,8.6-5.3,11.4l0,0c-3.6,2.9-7.8,4.3-13,4.3c-4.5,0-8.4-0.7-11.9-2.2c-3.6-1.6-6.8-3.7-9.9-6.6l-1.5-1.4l-11.9,11.9
		l1.5,1.5c4,4,8.9,7.2,14.8,9.7l0,0l0,0l0,0c6,2.4,12.3,3.5,19.2,3.5c10,0,18.7-3.1,25.7-9.3c6.9-6.2,10.5-13.9,10.5-22.9
		C238,83.9,235.3,77,229.7,71.4z"/>
	<path class="st1" d="M141.3,39.4L141.3,39.4L141.3,39.4L141.3,39.4c-8.9-9.3-21.1-13.8-36.3-13.8H64.1l-4.2,16.1h13v81H105
		c15.2,0,27.4-4.5,36.3-13.6l0,0l0,0c8.8-9.2,13.1-20.8,13.1-34.8C154.6,60.2,150.1,48.6,141.3,39.4L141.3,39.4z M136,74.3
		c0,11.2-3.1,19.1-9,24.4s-13.5,8.1-22.8,8.1H90.9V41.9h13.3c9.4,0,17,2.7,22.8,8.2l0,0l0,0l0,0C132.9,55.4,136,63.3,136,74.3z"/>
</g>
</svg>
