<?xml version="1.0" encoding="utf-8"?>
<!-- Generator: Adobe Illustrator 23.0.1, SVG Export Plug-In . SVG Version: 6.00 Build 0)  -->
<svg version="1.1"
	 id="Livello_1" image-rendering="optimizeQuality" shape-rendering="geometricPrecision" text-rendering="geometricPrecision"
	 xmlns="http://www.w3.org/2000/svg" xmlns:xlink="http://www.w3.org/1999/xlink" x="0px" y="0px" viewBox="0 0 200 200"
	 style="enable-background:new 0 0 200 200;" xml:space="preserve">
<style type="text/css">
	.st0{fill:#EF7E24;}
	.st1{fill:#FFFFFF;}
</style>
<g>
	<path class="st0" d="M0,100c0,55.9,44.1,100,100,100c55.9,0,100-44.1,100-100C200,44.1,155.9,0,100,0C44.1,0,0,44.1,0,100"/>
	<path class="st1" d="M81.1,117.1c0,10,7.9,18.9,19.4,18.9c11.3,0,19.1-8.9,19.1-18.9c0-10.5-7.6-19.1-19.1-19.1
		C88.7,97.9,81.1,106.6,81.1,117.1 M61.9,114.2c0-15.2,6.6-28.1,22.6-48.6l14.9-18.9l20.7,1.6L89,85.6h0.3c5-2.6,10.2-3.7,15.5-3.7
		c16.5,0,33.9,12.6,33.9,34.4c0,20-15.2,36.5-38.6,36.5C76.1,152.8,61.9,133.9,61.9,114.2"/>
</g>
</svg>
