<?xml version="1.0" encoding="utf-8"?>
<!-- Generator: Adobe Illustrator 23.0.1, SVG Export Plug-In . SVG Version: 6.00 Build 0)  -->
<svg version="1.1"
	 id="svg147969"
	 xmlns="http://www.w3.org/2000/svg" xmlns:xlink="http://www.w3.org/1999/xlink" x="0px" y="0px" viewBox="0 0 200 200"
	 style="enable-background:new 0 0 200 200;" xml:space="preserve">
<style type="text/css">
	.st0{fill:#ACBFE3;}
	.st1{fill:#FFFFFF;}
</style>
<g>
	<path class="st0" d="M0,100c0,55.9,44.1,100,100,100c55.9,0,100-44.1,100-100C200,44.1,155.9,0,100,0C44.1,0,0,44.1,0,100"/>
	<path class="st1" d="M87.9,62.5c8.7-8.9,22.6-15.8,36.8-15.8c22.8,0,35.2,14.2,35.2,29.9c0,13.9-6.8,23.4-24.1,39.9l-18.6,17.9v0.2
		h47.5l-6,16.3H91.6V137l26.5-26c19.1-18.9,23.1-24.7,23.1-32.8c0-9.2-7.6-14.7-17.3-14.7c-8.7,0-17.6,4.5-24.4,10.8L87.9,62.5z
		 M31.8,64.8l5.8-16.5h31.2v102.6H50.4V64.8H31.8z"/>
</g>
</svg>
