<?xml version="1.0" encoding="utf-8"?>
<!-- Generator: Adobe Illustrator 27.1.1, SVG Export Plug-In . SVG Version: 6.00 Build 0)  -->
<svg version="1.1" image-rendering="optimizeQuality" text-rendering="geometricPrecision" shape-rendering="geometricPrecision"
	 xmlns="http://www.w3.org/2000/svg" xmlns:xlink="http://www.w3.org/1999/xlink" x="0px" y="0px" viewBox="0 0 200 200"
	 style="enable-background:new 0 0 200 200;" xml:space="preserve">
<style type="text/css">
	.st0{fill:#03795F;}
	.st1{fill:#FFFFFF;}
</style>
<g>
	<path class="st0" d="M0,100c0,55.9,44.1,100,100,100s100-44.1,100-100S155.9,0,100,0S0,44.1,0,100"/>
	<polygon class="st1" points="34.9,64.5 40.7,48 71.9,48 71.9,150.6 53.6,150.6 53.6,64.5 	"/>
	<path class="st1" d="M88.3,114.4c0-15.2,6.6-28.1,22.6-48.6l14.9-18.9l20.7,1.6l-31.1,37.3h0.3c5-2.6,10.2-3.7,15.5-3.7
		c16.5,0,33.9,12.6,33.9,34.4c0,20-15.2,36.5-38.6,36.5C102.5,153,88.3,134.1,88.3,114.4"/>
	<path class="st0" d="M107.5,117.3c0,10,7.9,18.9,19.4,18.9c11.3,0,19.1-8.9,19.1-18.9c0-10.5-7.6-19.1-19.1-19.1
		C115.1,98.1,107.5,106.8,107.5,117.3"/>
</g>
</svg>
