<?xml version="1.0" encoding="utf-8"?>
<!-- Generator: Adobe Illustrator 27.1.1, SVG Export Plug-In . SVG Version: 6.00 Build 0)  -->
<svg version="1.1"
	 xmlns:svg="http://www.w3.org/2000/svg" xmlns:dc="http://purl.org/dc/elements/1.1/" xmlns:sodipodi="http://sodipodi.sourceforge.net/DTD/sodipodi-0.dtd" xmlns:cc="http://creativecommons.org/ns#" xmlns:rdf="http://www.w3.org/1999/02/22-rdf-syntax-ns#" xmlns:inkscape="http://www.inkscape.org/namespaces/inkscape"
	 xmlns="http://www.w3.org/2000/svg" xmlns:xlink="http://www.w3.org/1999/xlink" x="0px" y="0px" viewBox="0 0 200 200"
	 style="enable-background:new 0 0 200 200;" xml:space="preserve">
<style type="text/css">
	.st0{fill:#AC1753;}
	.st1{fill:#FFFFFF;}
</style>
<g>
	<path class="st0" d="M186.4,50c-9.1-15.4-21.3-27.5-36.6-36.5S117.8,0,99.9,0C81.8,0,65.1,4.5,49.8,13.5S22.4,34.6,13.5,49.9
		C4.5,65.2,0,81.9,0,100.2c0,18.1,4.5,34.9,13.5,50.1s21.1,27.4,36.3,36.3c15.3,8.9,32,13.3,50.1,13.3c17.9,0,34.6-4.5,49.9-13.5
		c15.4-9,27.6-21.1,36.6-36.3c9.1-15.2,13.6-31.9,13.6-50S195.5,65.4,186.4,50z"/>
	<polygon class="st1" points="69.4,150.1 51.6,150.1 51.6,64.5 32.7,64.5 38.8,48.4 69.4,48.4 	"/>
	<path class="st1" d="M122.1,153.1c-23.2,0-39-12-39-30.7c0-10.9,7.9-20.4,17.5-24.1V98c-9.8-3.7-15.1-13.2-15.1-22.5
		c0-15.4,14.2-28.8,36.7-28.8s36.7,13.4,36.7,28.8c0,9.2-5.3,18.8-15.1,22.5v0.3c9.5,3.7,17.5,13.2,17.5,24.1
		C161.1,141,145.3,153.1,122.1,153.1z"/>
	<path class="st0" d="M122.1,90.7C134,90.7,140,84,140,76.6c0-7.3-6-13.9-17.9-13.9s-17.9,6.6-17.9,13.9
		C104.2,84,110.2,90.7,122.1,90.7z"/>
	<path class="st0" d="M122.1,107c-12.8,0-19.8,7.5-19.8,15.1c0,7.8,7,15.1,19.8,15.1c12.7,0,19.8-7.3,19.8-15.1
		C141.9,114.5,134.9,107,122.1,107z"/>
</g>
</svg>
