<?xml version="1.0" encoding="utf-8"?>
<!-- Generator: Adobe Illustrator 23.0.1, SVG Export Plug-In . SVG Version: 6.00 Build 0)  -->
<svg version="1.1" id="Слой_1" xmlns="http://www.w3.org/2000/svg" xmlns:xlink="http://www.w3.org/1999/xlink" x="0px" y="0px"
	 viewBox="0 0 299.1 150" style="enable-background:new 0 0 299.1 150;" xml:space="preserve">
<style type="text/css">
	.st0{fill:#F6A500;}
	.st1{fill:#FFFFFF;}
</style>
<g>
	<path class="st0" d="M298.5,9.9l-42.3,129.8c-2.8,8-6.2,10.3-14.5,10.3H8.1c-7.1,0-9.4-3.2-7.3-10.1L42.8,10.1
		C45.4,2.3,48.6,0,57.1,0h233.8C298,0,300.3,3.2,298.5,9.9"/>
	<path class="st1" d="M176.3,119.6h49.2l5.3-14.5h-20.5V29.7h-32.9v14.3h16.8v61.2h-17.9V119.6z M160.4,74.8
		c0-26.7-18.2-45.1-46.3-45.1H73l-4.8,15.2h15.2v74.8h30.8C142.2,119.6,160.4,101.2,160.4,74.8 M142.7,74.8
		c0,19.8-12.4,29.9-29,29.9h-13.6V44.6h13.6C130.3,44.6,142.7,54.5,142.7,74.8"/>
</g>
</svg>
