<?xml version="1.0" encoding="utf-8"?>
<!-- Generator: Adobe Illustrator 23.0.1, SVG Export Plug-In . SVG Version: 6.00 Build 0)  -->
<svg version="1.1"
	 id="Livello_1" image-rendering="optimizeQuality" shape-rendering="geometricPrecision" text-rendering="geometricPrecision"
	 xmlns="http://www.w3.org/2000/svg" xmlns:xlink="http://www.w3.org/1999/xlink" x="0px" y="0px" viewBox="0 0 200 200"
	 style="enable-background:new 0 0 200 200;" xml:space="preserve">
<style type="text/css">
	.st0{fill:#ADACAC;}
	.st1{fill:#FFFFFF;}
</style>
<g>
	<path class="st0" d="M0,100c0,55.9,44.1,100,100,100c55.9,0,100-44.1,100-100C200,44.3,155.9,0,100,0C44.1,0,0,44.1,0,100"/>
	<path class="st1" d="M81.9,82.4c0,10.5,7.6,19.1,19.2,19.1c11.5,0,19.1-8.7,19.1-19.1c0-10-7.6-18.9-19.1-18.9
		C89.8,63.5,81.9,72.4,81.9,82.4 M63,83.2c0-20.2,15.2-36.5,38.6-36.5c23.9,0,38.1,18.9,38.1,38.6c0,15.2-6.6,28.1-22.6,48.6
		l-15,18.9l-20.7-1.8l31.2-37l-0.2-0.2c-5,2.9-10.2,3.9-15.5,3.9C80.3,117.6,63,104.7,63,83.2"/>
</g>
</svg>
