<?xml version="1.0" encoding="utf-8"?>
<!-- Generator: Adobe Illustrator 22.0.1, SVG Export Plug-In . SVG Version: 6.00 Build 0)  -->
<svg version="1.1" id="Слой_1" xmlns="http://www.w3.org/2000/svg" xmlns:xlink="http://www.w3.org/1999/xlink" x="0px" y="0px"
	 viewBox="0 0 298 150" style="enable-background:new 0 0 298 150;" xml:space="preserve">
<style type="text/css">
	.st0{fill:#77B729;}
	.st1{fill:#FFFFFF;}
</style>
<path class="st0" d="M45.6,3.5C46.2,1.4,48.2,0,50.3,0h242.5c3.3,0,5.7,3.2,4.7,6.4l-45.1,140.1c-0.6,2.1-2.6,3.5-4.7,3.5H5.2
	c-3.3,0-5.7-3.2-4.7-6.4L45.6,3.5z"/>
<g>
	<path class="st1" d="M140.1,39L140.1,39L140.1,39L140.1,39c-8.9-9.3-21.1-13.8-36.3-13.8H63.2L59,41.4h12.6v81h32.1
		c15.2,0,27.4-4.5,36.3-13.6l0,0l0,0c8.8-9.2,13.1-20.8,13.1-34.8C153.3,59.9,149,48.2,140.1,39L140.1,39z M134.7,73.8
		c0,11.2-3.1,19.1-9,24.4c-6,5.3-13.5,8.1-22.8,8.1H89.6V41.5h13.3c9.4,0,17,2.7,22.8,8.2l0,0l0,0C131.6,55,134.7,62.9,134.7,73.8z"
		/>
	<path class="st1" d="M234.7,77.6L234.7,77.6L234.7,77.6C234.7,77.6,234.7,77.5,234.7,77.6L234.7,77.6c-1.9-4.1-4.5-7.4-7.7-10.2
		l0,0l0,0l0,0l0,0c-3.1-2.6-6.7-4.6-10.7-6l0,0l0,0l0,0l0,0c-4-1.4-7.9-2.1-11.9-2.1c-3.5,0-6.9,0.4-10.2,1.2l0,0l0,0
		c-1.9,0.5-3.6,1.1-5.2,1.7l1.1-20.7h40.9l6-16.4h-61.9l-3.2,53.4l14,1.5l0.6-0.4l0,0c2-1.2,4.3-2.4,6.9-3.1l0,0l0,0l0,0
		c2.6-0.9,5.3-1.2,8.2-1.2c5.8,0,10.2,1.6,13.1,4.7l0,0l0,0c3.1,3.1,4.6,6.7,4.6,11c0,4.5-1.6,8.2-5.1,11.5l0,0
		c-3.2,3.1-7.7,4.7-13.5,4.7c-4.7,0-8.8-0.7-12.4-2.2c-3.6-1.6-6.8-3.7-9.9-6.6l-1.5-1.4l-12.1,12.1l1.5,1.5c4,4,8.8,7.1,14.4,9.4
		l0,0l0,0c5.8,2.5,12.4,3.6,20,3.6c10.7,0,19.6-3.1,26.5-9.5c6.8-6.4,10.4-14.1,10.4-23.1C237.6,86.2,236.6,81.6,234.7,77.6z"/>
</g>
</svg>
