<?xml version="1.0" encoding="utf-8"?>
<!-- Generator: Adobe Illustrator 23.0.1, SVG Export Plug-In . SVG Version: 6.00 Build 0)  -->
<svg version="1.1"
	 id="Livello_1" image-rendering="optimizeQuality" shape-rendering="geometricPrecision" text-rendering="geometricPrecision"
	 xmlns="http://www.w3.org/2000/svg" xmlns:xlink="http://www.w3.org/1999/xlink" x="0px" y="0px" viewBox="0 0 200 200"
	 style="enable-background:new 0 0 200 200;" xml:space="preserve">
<style type="text/css">
	.st0{fill:#925233;}
	.st1{fill:#FFFFFF;}
</style>
<g>
	<path class="st0" d="M0,100c0,55.9,44.1,100,100,100c55.9,0,100-44.1,100-100C200,44.1,155.9,0,100,0C44.1,0,0,44.1,0,100"/>
	<path class="st1" d="M62.2,138.6L74.6,126c7.1,6.6,15.2,9.7,23.4,9.7c11.8,0,20.7-7.1,20.7-17.8c0-9.2-7.6-16.3-19.4-16.3
		c-5,0-11.3,1.8-16.3,5.2l-14.7-1.3l2.6-57.2h64.6l-6,16.5h-43l-1.3,23.9h0.2c5.2-2.6,11.8-3.9,17.3-3.9c17.6,0,35.2,11.8,35.2,32.8
		c0,18.7-15.2,35.2-39.1,35.2C83.2,152.8,70.9,147.5,62.2,138.6"/>
</g>
</svg>
