<?xml version="1.0" encoding="utf-8"?>
<!-- Generator: Adobe Illustrator 23.0.1, SVG Export Plug-In . SVG Version: 6.00 Build 0)  -->
<svg version="1.1"
	 id="Livello_1" image-rendering="optimizeQuality" shape-rendering="geometricPrecision" text-rendering="geometricPrecision"
	 xmlns="http://www.w3.org/2000/svg" xmlns:xlink="http://www.w3.org/1999/xlink" x="0px" y="0px" viewBox="0 0 200 200"
	 style="enable-background:new 0 0 200 200;" xml:space="preserve">
<style type="text/css">
	.st0{fill:#FEFEFE;}
	.st1{fill:#E42D24;}
</style>
<g>
	<path class="st0" d="M100,4.5c-52.9,0-95.5,42.7-95.5,95.6c0,52.9,42.6,95.4,95.5,95.4c52.9,0,95.5-42.5,95.5-95.4
		C195.5,47.2,152.9,4.5,100,4.5z"/>
	<path class="st1" d="M28.8,100c0-40,31.2-71.2,71.2-71.2c40.2,0,71.2,31.2,71.2,71.2c0,40-31.2,71.2-71.2,71.2
		C60,171.2,28.8,140,28.8,100 M20.3,100c0,44.7,35,79.7,79.7,79.7c44.7,0,79.7-35,79.7-79.7c0-45-35-79.7-79.7-79.7
		C55.3,20.3,20.3,55.3,20.3,100 M8.5,100C8.5,48.7,48.7,8.5,100,8.5c51.8,0,91.5,40,91.5,91.5c0,51.3-40.2,91.5-91.5,91.5
		C48.7,191.5,8.5,151.3,8.5,100 M0,100c0,56,44,100,100,100c56,0,100-44,100-100C200,43.7,156.5,0,100,0C44,0,0,44,0,100"/>
	<path d="M92,121.3V110l21.8-52h16.5l-21.7,50.5h22v-22h14.8v22h12.5l-4.5,12.7h-8v18.5h-14.8v-18.5H92z M63,139.8v-68H48.2L53,58
		h25.2v81.7H63z"/>
</g>
</svg>
