<?xml version="1.0" encoding="utf-8"?>
<!-- Generator: Adobe Illustrator 23.0.1, SVG Export Plug-In . SVG Version: 6.00 Build 0)  -->
<svg version="1.1"
	 id="Livello_1" image-rendering="optimizeQuality" shape-rendering="geometricPrecision" text-rendering="geometricPrecision"
	 xmlns="http://www.w3.org/2000/svg" xmlns:xlink="http://www.w3.org/1999/xlink" x="0px" y="0px" viewBox="0 0 200 200"
	 style="enable-background:new 0 0 200 200;" xml:space="preserve">
<style type="text/css">
	.st0{fill:#4BAF4F;}
	.st1{fill:#FFFFFF;}
</style>
<g>
	<path class="st0" d="M0,100c0,55.9,44.1,100,100,100c55.9,0,100-44.1,100-100C200,44.1,156.2,0,100,0C44.1,0,0,44.1,0,100"/>
	<path class="st1" d="M62.5,62.2c8.9-8.7,22.8-15.5,37-15.5c22.9,0,35.2,14.2,35.2,29.9c0,13.9-6.8,23.4-24.1,39.9l-18.7,17.9v0.2
		h47.3l-5.8,16.3H66.4V137l26.3-26C111.8,91.9,116,86.3,116,78.2c0-9.2-7.6-14.7-17.3-14.7c-8.7,0-17.9,4.5-24.4,10.8L62.5,62.2z"/>
</g>
</svg>
