<?xml version="1.0" encoding="utf-8"?>
<!-- Generator: Adobe Illustrator 22.0.1, SVG Export Plug-In . SVG Version: 6.00 Build 0)  -->
<svg version="1.1" id="Слой_1" xmlns="http://www.w3.org/2000/svg" xmlns:xlink="http://www.w3.org/1999/xlink" x="0px" y="0px"
	 viewBox="0 0 298 150" style="enable-background:new 0 0 298 150;" xml:space="preserve">
<style type="text/css">
	.st0{fill:#41B384;}
	.st1{fill:#FFFFFF;}
</style>
<path class="st0" d="M45.6,3.5C46.2,1.4,48.2,0,50.3,0h242.5c3.3,0,5.7,3.2,4.7,6.4l-45.1,140.1c-0.6,2.1-2.6,3.5-4.7,3.5H5.2
	c-3.3,0-5.7-3.2-4.7-6.4L45.6,3.5z"/>
<g>
	<path class="st1" d="M139,39L139,39L139,39L139,39c-8.9-9.3-21.1-13.8-36.3-13.8H63.1L59,41.4h11.5v81h32.1
		c15.2,0,27.4-4.5,36.3-13.6l0,0l0,0c8.8-9.2,13.1-20.8,13.1-34.8C152.1,59.9,147.8,48.2,139,39L139,39z M133.6,73.8
		c0,11.2-3.1,19.1-8.9,24.4l0,0c-6,5.3-13.5,8.1-22.8,8.1H88.5V41.5h13.3c9.4,0,17,2.7,22.8,8.2l0,0l0,0l0,0
		C130.5,55,133.6,62.9,133.6,73.8z"/>
	<polygon class="st1" points="226.6,85.8 226.6,57.8 209.1,57.8 209.1,85.8 184.1,85.8 210.2,25.3 191.5,25.3 164.5,89 164.5,101.5 
		209.1,101.5 209.1,122.4 226.6,122.4 226.6,101.5 237.1,101.5 243,85.8 	"/>
</g>
</svg>
