<?xml version="1.0" encoding="utf-8"?>
<!-- Generator: Adobe Illustrator 23.0.1, SVG Export Plug-In . SVG Version: 6.00 Build 0)  -->
<svg version="1.1"
	 id="Livello_1" image-rendering="optimizeQuality" shape-rendering="geometricPrecision" text-rendering="geometricPrecision"
	 xmlns="http://www.w3.org/2000/svg" xmlns:xlink="http://www.w3.org/1999/xlink" x="0px" y="0px" viewBox="0 0 200 200"
	 style="enable-background:new 0 0 200 200;" xml:space="preserve">
<style type="text/css">
	.st0{fill:#FFCD1E;}
</style>
<g>
	<path class="st0" d="M0,100c0,55.9,44.1,100,100,100c55.9,0,100-44.1,100-100C200,44.1,156.2,0,100,0C44.1,0,0,44.1,0,100"/>
	<path d="M82.7,76.4c0,7.6,5.8,14.2,17.9,14.2c11.8,0,17.8-6.6,17.8-14.2c0-7.3-6-13.9-17.8-13.9C88.5,62.5,82.7,69,82.7,76.4
		 M80.9,121.8c0,7.9,7.1,15.2,19.9,15.2c12.6,0,19.7-7.3,19.7-15.2c0-7.6-7.1-15-19.7-15C87.9,106.8,80.9,114.2,80.9,121.8
		 M61.7,122.1c0-10.8,7.9-20.2,17.6-23.9v-0.2C69.3,94.2,64,84.5,64,75.3c0-15.2,14.2-28.6,36.8-28.6c22.3,0,36.5,13.4,36.5,28.6
		c0,9.2-5.2,18.9-14.9,22.6v0.2c9.5,3.7,17.3,13.1,17.3,23.9c0,18.6-15.7,30.7-38.8,30.7C77.4,152.8,61.7,140.7,61.7,122.1"/>
</g>
</svg>
