<?xml version="1.0" encoding="utf-8"?>
<!-- Generator: Adobe Illustrator 23.0.1, SVG Export Plug-In . SVG Version: 6.00 Build 0)  -->
<svg version="1.1"
	 id="svg147969"
	 xmlns="http://www.w3.org/2000/svg" xmlns:xlink="http://www.w3.org/1999/xlink" x="0px" y="0px" viewBox="0 0 200 200"
	 style="enable-background:new 0 0 200 200;" xml:space="preserve">
<style type="text/css">
	.st0{fill:#B9C7E7;}
	.st1{fill:#0072B9;}
	.st2{fill:#FFFFFF;}
</style>
<g>
	<path class="st0" d="M0,100c0,55.9,44.1,100,100,100c55.9,0,100-44.1,100-100C200,43.8,156.7,0,100,0C44.1,0,0,44.1,0,100"/>
	<path class="st1" d="M16.8,100c0-46.4,36.7-83.2,83.2-83.2c47.2,0,83.2,36.5,83.2,83.2c0,46.4-36.7,83.2-83.2,83.2
		S16.8,146.4,16.8,100"/>
	<path class="st2" d="M85.6,136.7l12.3-12.6c6,6.6,14.4,8.9,21.8,8.9c10.2,0,18.6-6.3,18.6-14.7c0-10.8-10.7-15.7-21.3-15.7
		c-2.9,0-6,0.8-9.2,1.6V90.8l23.6-23.4H91.6V50.9h63.3V63l-25.2,25.5c13.9,1.8,27.3,12.3,27.3,29.6c0,18.9-17.1,31.8-36.7,31.8
		C106.3,149.9,94,144.9,85.6,136.7"/>
	<polygon class="st2" points="34.9,67.5 40.7,50.9 70.9,50.9 70.9,148.3 52.5,148.3 52.5,67.5 	"/>
</g>
</svg>
