<?xml version="1.0" encoding="utf-8"?>
<!-- Generator: Adobe Illustrator 23.0.1, SVG Export Plug-In . SVG Version: 6.00 Build 0)  -->
<svg version="1.1"
	 id="Livello_1" image-rendering="optimizeQuality" shape-rendering="geometricPrecision" text-rendering="geometricPrecision"
	 xmlns="http://www.w3.org/2000/svg" xmlns:xlink="http://www.w3.org/1999/xlink" x="0px" y="0px" viewBox="0 0 200 200"
	 style="enable-background:new 0 0 200 200;" xml:space="preserve">
<style type="text/css">
	.st0{fill:#0071B9;}
	.st1{fill:#FFFFFF;}
</style>
<g>
	<path class="st0" d="M0,100c0,55.9,44.1,100,100,100c55.9,0,100-44.1,100-100C200,44.1,155.9,0,100,0C44.1,0,0,44.1,0,100"/>
	<path class="st1" d="M62.2,138.6L74.6,126c6.8,6.6,15.2,10,23.1,10c11.8,0,20.2-7.6,20.2-16.8c0-11.8-11-16.8-22.3-16.8
		c-3.2,0-6.6,0.5-9.5,1V90.5l25.7-25.7H68.5V48.3h66.7v12.9l-26.3,26.2v0.3c15.2,2.4,28.1,13.1,28.1,31.2
		c0,19.4-17.6,33.9-38.6,33.9C81.6,152.8,70.4,147,62.2,138.6"/>
</g>
</svg>
