<?xml version="1.0" encoding="utf-8"?>
<!-- Generator: Adobe Illustrator 27.1.1, SVG Export Plug-In . SVG Version: 6.00 Build 0)  -->
<svg version="1.1"
	 xmlns="http://www.w3.org/2000/svg" x="0px" y="0px" viewBox="0 0 200 200"
	 style="enable-background:new 0 0 200 200;" xml:space="preserve">
<style type="text/css">
	.st0{fill:#27303F;}
	.st1{fill:#FFFFFF;}
</style>
<g>
	<path class="st0" d="M150.2,13.6c15.2,8.9,27.3,21,36.2,36.2c8.9,15.3,13.3,31.9,13.3,50.1s-4.4,34.8-13.3,50.2
		c-8.9,15.3-21,27.5-36.2,36.5c-15.3,9-32,13.4-50.3,13.4c-18.1,0-34.8-4.5-50.1-13.4c-15.2-9-27.3-21.1-36.2-36.5S0.3,118,0.3,99.9
		s4.4-34.8,13.3-50.1c8.9-15.2,21-27.3,36.2-36.2s32-13.3,50.1-13.3C118.1,0.3,134.9,4.8,150.2,13.6z"/>
	<polygon class="st1" points="74.5,48.3 43.6,48.3 37.5,64.4 55.9,64.4 55.9,150.2 74.5,150.2 	"/>
	<polygon class="st1" points="162.5,48.3 93.3,48.3 93.3,64.4 141.6,64.4 99.9,150.2 120.7,150.2 162.5,61.4 	"/>
</g>
</svg>
